<svg xmlns="http://www.w3.org/2000/svg" xmlns:xlink="http://www.w3.org/1999/xlink" width="1080" zoomAndPan="magnify" viewBox="0 0 810 809.999993" height="1080" preserveAspectRatio="xMidYMid meet" version="1.0"><defs><g/><clipPath id="c69de9a9e2"><path d="M 541 4 L 779.039062 4 L 779.039062 169 L 541 169 Z M 541 4 " clip-rule="nonzero"/></clipPath><clipPath id="d9ae89facd"><rect x="0" width="239" y="0" height="165"/></clipPath><clipPath id="a101d4da4c"><rect x="0" width="563" y="0" height="163"/></clipPath><clipPath id="f305c90e25"><path d="M 88 0.0390625 L 239 0.0390625 L 239 182.921875 L 88 182.921875 Z M 88 0.0390625 " clip-rule="nonzero"/></clipPath><clipPath id="61db11d5fa"><rect x="0" width="151" y="0" height="183"/></clipPath><clipPath id="ab0f0d6c02"><rect x="0" width="780" y="0" height="183"/></clipPath></defs><g transform="matrix(1, 0, 0, 1, 0, 311)"><g clip-path="url(#ab0f0d6c02)"><g clip-path="url(#c69de9a9e2)"><g transform="matrix(1, 0, 0, 1, 541, 4)"><g clip-path="url(#d9ae89facd)"><g fill="#ba1b1b" fill-opacity="1"><g transform="translate(0.226109, 134.572562)"><g><path d="M 10.859375 0 L 10.859375 -108.578125 L 36.453125 -108.265625 C 48.648438 -108.160156 56.195312 -108.003906 59.09375 -107.796875 C 61.988281 -107.585938 64.472656 -107.226562 66.546875 -106.71875 C 71.191406 -105.269531 75.171875 -103.300781 78.484375 -100.8125 C 81.796875 -98.332031 84.125 -95.644531 85.46875 -92.75 C 86.914062 -89.75 87.691406 -87.140625 87.796875 -84.921875 C 87.898438 -82.703125 87.953125 -81.332031 87.953125 -80.8125 C 87.953125 -77.601562 87.429688 -74.757812 86.390625 -72.28125 C 85.566406 -70.207031 83.734375 -67.800781 80.890625 -65.0625 C 78.046875 -62.320312 74.863281 -59.867188 71.34375 -57.703125 C 71.039062 -57.597656 70.890625 -57.441406 70.890625 -57.234375 C 70.890625 -57.023438 71.09375 -56.816406 71.5 -56.609375 C 72.019531 -56.410156 72.742188 -56.101562 73.671875 -55.6875 C 77.398438 -54.132812 80.863281 -51.910156 84.0625 -49.015625 C 87.269531 -46.117188 89.34375 -43.222656 90.28125 -40.328125 C 91.207031 -37.429688 91.671875 -34.378906 91.671875 -31.171875 C 91.671875 -30.554688 91.617188 -29.132812 91.515625 -26.90625 C 91.410156 -24.6875 90.53125 -21.921875 88.875 -18.609375 C 87.738281 -16.234375 85.800781 -13.625 83.0625 -10.78125 C 80.320312 -7.9375 77.765625 -5.894531 75.390625 -4.65625 C 71.765625 -2.789062 68.503906 -1.648438 65.609375 -1.234375 C 62.710938 -0.828125 57.800781 -0.519531 50.875 -0.3125 C 44.363281 -0.101562 39.660156 0 36.765625 0 C 35.828125 0 35.101562 0 34.59375 0 Z M 36.453125 -21.40625 L 42.65625 -21.71875 C 50.207031 -22.125 55.582031 -22.953125 58.78125 -24.203125 C 60.539062 -25.128906 62.015625 -26.492188 63.203125 -28.296875 C 64.390625 -30.109375 64.984375 -31.945312 64.984375 -33.8125 C 64.984375 -37.4375 63.351562 -40.226562 60.09375 -42.1875 C 56.84375 -44.15625 51.546875 -45.394531 44.203125 -45.90625 L 39.546875 -46.21875 L 39.546875 -65.921875 L 45.90625 -66.234375 C 50.144531 -66.441406 53.503906 -67.164062 55.984375 -68.40625 C 58.472656 -69.644531 60.335938 -71.554688 61.578125 -74.140625 C 62.097656 -75.066406 62.359375 -76 62.359375 -76.9375 C 62.359375 -77.96875 61.914062 -79.257812 61.03125 -80.8125 C 60.15625 -82.363281 58.425781 -83.8125 55.84375 -85.15625 C 54.289062 -85.976562 52.039062 -86.648438 49.09375 -87.171875 C 46.144531 -87.691406 43.378906 -87.953125 40.796875 -87.953125 L 36.296875 -87.953125 Z M 36.453125 -21.40625 "/></g></g></g><g fill="#ba1b1b" fill-opacity="1"><g transform="translate(84.429784, 134.572562)"><g><path d="M 35.515625 -78.640625 C 39.242188 -79.460938 42.8125 -79.875 46.21875 -79.875 C 49.113281 -79.875 52.757812 -79.410156 57.15625 -78.484375 C 61.550781 -77.554688 65.660156 -75.332031 69.484375 -71.8125 C 73.003906 -68.601562 75.488281 -65.085938 76.9375 -61.265625 C 78.382812 -57.441406 79.210938 -52.222656 79.421875 -45.609375 C 79.523438 -43.429688 79.578125 -41.566406 79.578125 -40.015625 C 79.578125 -37.742188 79.472656 -36.242188 79.265625 -35.515625 C 79.054688 -34.484375 78.820312 -33.863281 78.5625 -33.65625 C 78.300781 -33.445312 77.601562 -33.34375 76.46875 -33.34375 C 74.8125 -33.34375 70.050781 -32.953125 62.1875 -32.171875 C 54.332031 -31.398438 47.359375 -31.015625 41.265625 -31.015625 L 32.109375 -31.015625 L 32.578125 -29.46875 C 33.296875 -26.570312 35.234375 -24.113281 38.390625 -22.09375 C 41.546875 -20.082031 45.085938 -19.078125 49.015625 -19.078125 C 53.773438 -19.078125 58.117188 -20.679688 62.046875 -23.890625 C 63.804688 -25.335938 64.890625 -26.0625 65.296875 -26.0625 C 65.609375 -26.0625 67.804688 -23.914062 71.890625 -19.625 C 75.972656 -15.332031 78.066406 -12.925781 78.171875 -12.40625 C 78.171875 -12.40625 78.171875 -12.351562 78.171875 -12.25 C 78.171875 -11.738281 76.617188 -10.34375 73.515625 -8.0625 C 70.421875 -5.789062 67.679688 -4.085938 65.296875 -2.953125 C 62.191406 -1.503906 59.21875 -0.421875 56.375 0.296875 C 53.53125 1.023438 50.09375 1.390625 46.0625 1.390625 C 36.238281 1.390625 28.019531 -1.113281 21.40625 -6.125 C 14.789062 -11.144531 10.132812 -18.253906 7.4375 -27.453125 C 6.613281 -30.453125 6.203125 -34.484375 6.203125 -39.546875 C 6.203125 -44.203125 6.507812 -47.976562 7.125 -50.875 C 7.75 -53.769531 8.992188 -57.023438 10.859375 -60.640625 C 13.335938 -65.503906 16.59375 -69.410156 20.625 -72.359375 C 24.65625 -75.304688 29.617188 -77.398438 35.515625 -78.640625 Z M 52.265625 -60.796875 C 50.515625 -61.628906 48.757812 -62.046875 47 -62.046875 C 45.65625 -62.046875 43.710938 -61.628906 41.171875 -60.796875 C 38.640625 -59.972656 36.34375 -58.0625 34.28125 -55.0625 C 32.625 -52.789062 31.796875 -51.238281 31.796875 -50.40625 C 31.796875 -50.300781 31.847656 -50.066406 31.953125 -49.703125 C 32.054688 -49.347656 33.660156 -49.171875 36.765625 -49.171875 C 39.660156 -49.171875 44.15625 -49.398438 50.25 -49.859375 C 56.351562 -50.328125 59.457031 -50.613281 59.5625 -50.71875 C 59.664062 -50.820312 59.71875 -51.03125 59.71875 -51.34375 C 59.71875 -51.851562 59.328125 -52.910156 58.546875 -54.515625 C 57.773438 -56.117188 57.03125 -57.335938 56.3125 -58.171875 C 55.375 -59.097656 54.023438 -59.972656 52.265625 -60.796875 Z M 52.265625 -60.796875 "/></g></g></g><g fill="#ba1b1b" fill-opacity="1"><g transform="translate(156.382205, 134.572562)"><g><path d="M 35.515625 -78.640625 C 39.242188 -79.460938 42.8125 -79.875 46.21875 -79.875 C 49.113281 -79.875 52.757812 -79.410156 57.15625 -78.484375 C 61.550781 -77.554688 65.660156 -75.332031 69.484375 -71.8125 C 73.003906 -68.601562 75.488281 -65.085938 76.9375 -61.265625 C 78.382812 -57.441406 79.210938 -52.222656 79.421875 -45.609375 C 79.523438 -43.429688 79.578125 -41.566406 79.578125 -40.015625 C 79.578125 -37.742188 79.472656 -36.242188 79.265625 -35.515625 C 79.054688 -34.484375 78.820312 -33.863281 78.5625 -33.65625 C 78.300781 -33.445312 77.601562 -33.34375 76.46875 -33.34375 C 74.8125 -33.34375 70.050781 -32.953125 62.1875 -32.171875 C 54.332031 -31.398438 47.359375 -31.015625 41.265625 -31.015625 L 32.109375 -31.015625 L 32.578125 -29.46875 C 33.296875 -26.570312 35.234375 -24.113281 38.390625 -22.09375 C 41.546875 -20.082031 45.085938 -19.078125 49.015625 -19.078125 C 53.773438 -19.078125 58.117188 -20.679688 62.046875 -23.890625 C 63.804688 -25.335938 64.890625 -26.0625 65.296875 -26.0625 C 65.609375 -26.0625 67.804688 -23.914062 71.890625 -19.625 C 75.972656 -15.332031 78.066406 -12.925781 78.171875 -12.40625 C 78.171875 -12.40625 78.171875 -12.351562 78.171875 -12.25 C 78.171875 -11.738281 76.617188 -10.34375 73.515625 -8.0625 C 70.421875 -5.789062 67.679688 -4.085938 65.296875 -2.953125 C 62.191406 -1.503906 59.21875 -0.421875 56.375 0.296875 C 53.53125 1.023438 50.09375 1.390625 46.0625 1.390625 C 36.238281 1.390625 28.019531 -1.113281 21.40625 -6.125 C 14.789062 -11.144531 10.132812 -18.253906 7.4375 -27.453125 C 6.613281 -30.453125 6.203125 -34.484375 6.203125 -39.546875 C 6.203125 -44.203125 6.507812 -47.976562 7.125 -50.875 C 7.75 -53.769531 8.992188 -57.023438 10.859375 -60.640625 C 13.335938 -65.503906 16.59375 -69.410156 20.625 -72.359375 C 24.65625 -75.304688 29.617188 -77.398438 35.515625 -78.640625 Z M 52.265625 -60.796875 C 50.515625 -61.628906 48.757812 -62.046875 47 -62.046875 C 45.65625 -62.046875 43.710938 -61.628906 41.171875 -60.796875 C 38.640625 -59.972656 36.34375 -58.0625 34.28125 -55.0625 C 32.625 -52.789062 31.796875 -51.238281 31.796875 -50.40625 C 31.796875 -50.300781 31.847656 -50.066406 31.953125 -49.703125 C 32.054688 -49.347656 33.660156 -49.171875 36.765625 -49.171875 C 39.660156 -49.171875 44.15625 -49.398438 50.25 -49.859375 C 56.351562 -50.328125 59.457031 -50.613281 59.5625 -50.71875 C 59.664062 -50.820312 59.71875 -51.03125 59.71875 -51.34375 C 59.71875 -51.851562 59.328125 -52.910156 58.546875 -54.515625 C 57.773438 -56.117188 57.03125 -57.335938 56.3125 -58.171875 C 55.375 -59.097656 54.023438 -59.972656 52.265625 -60.796875 Z M 52.265625 -60.796875 "/></g></g></g></g></g></g><g transform="matrix(1, 0, 0, 1, 0, 8)"><g clip-path="url(#a101d4da4c)"><g fill="#000000" fill-opacity="1"><g transform="translate(1.397659, 133.170916)"><g/></g></g><g fill="#000000" fill-opacity="1"><g transform="translate(34.899859, 133.170916)"><g><path d="M 10.859375 0 L 10.859375 -108.59375 L 36.453125 -108.28125 C 48.660156 -108.175781 56.210938 -108.019531 59.109375 -107.8125 C 62.003906 -107.601562 64.484375 -107.238281 66.546875 -106.71875 C 71.203125 -105.269531 75.179688 -103.304688 78.484375 -100.828125 C 81.796875 -98.347656 84.125 -95.660156 85.46875 -92.765625 C 86.914062 -89.765625 87.691406 -87.148438 87.796875 -84.921875 C 87.898438 -82.703125 87.953125 -81.332031 87.953125 -80.8125 C 87.953125 -77.613281 87.4375 -74.769531 86.40625 -72.28125 C 85.570312 -70.21875 83.734375 -67.816406 80.890625 -65.078125 C 78.046875 -62.335938 74.867188 -59.878906 71.359375 -57.703125 C 71.046875 -57.597656 70.890625 -57.441406 70.890625 -57.234375 C 70.890625 -57.035156 71.097656 -56.832031 71.515625 -56.625 C 72.023438 -56.414062 72.75 -56.101562 73.6875 -55.6875 C 77.40625 -54.132812 80.867188 -51.910156 84.078125 -49.015625 C 87.285156 -46.117188 89.351562 -43.222656 90.28125 -40.328125 C 91.207031 -37.429688 91.671875 -34.382812 91.671875 -31.1875 C 91.671875 -30.5625 91.617188 -29.132812 91.515625 -26.90625 C 91.421875 -24.6875 90.546875 -21.921875 88.890625 -18.609375 C 87.753906 -16.234375 85.8125 -13.625 83.0625 -10.78125 C 80.320312 -7.9375 77.765625 -5.894531 75.390625 -4.65625 C 71.773438 -2.789062 68.519531 -1.648438 65.625 -1.234375 C 62.726562 -0.828125 57.8125 -0.519531 50.875 -0.3125 C 44.363281 -0.101562 39.660156 0 36.765625 0 C 35.835938 0 35.113281 0 34.59375 0 Z M 36.453125 -21.40625 L 42.65625 -21.71875 C 50.207031 -22.132812 55.585938 -22.960938 58.796875 -24.203125 C 60.546875 -25.128906 62.015625 -26.5 63.203125 -28.3125 C 64.398438 -30.125 65 -31.957031 65 -33.8125 C 65 -37.4375 63.367188 -40.226562 60.109375 -42.1875 C 56.847656 -44.15625 51.546875 -45.398438 44.203125 -45.921875 L 39.5625 -46.234375 L 39.5625 -65.921875 L 45.921875 -66.234375 C 50.160156 -66.441406 53.519531 -67.164062 56 -68.40625 C 58.476562 -69.644531 60.335938 -71.5625 61.578125 -74.15625 C 62.097656 -75.082031 62.359375 -76.007812 62.359375 -76.9375 C 62.359375 -77.976562 61.914062 -79.269531 61.03125 -80.8125 C 60.15625 -82.363281 58.425781 -83.8125 55.84375 -85.15625 C 54.289062 -85.988281 52.039062 -86.660156 49.09375 -87.171875 C 46.144531 -87.691406 43.378906 -87.953125 40.796875 -87.953125 L 36.296875 -87.953125 Z M 36.453125 -21.40625 "/></g></g></g><g fill="#000000" fill-opacity="1"><g transform="translate(119.142308, 133.170916)"><g/></g></g><g fill="#000000" fill-opacity="1"><g transform="translate(152.644253, 133.170916)"><g/></g></g><g fill="#000000" fill-opacity="1"><g transform="translate(186.146706, 133.170916)"><g><path d="M 45.140625 -77.71875 C 49.796875 -79.269531 54.8125 -79.628906 60.1875 -78.796875 C 65.5625 -77.972656 70.472656 -75.703125 74.921875 -71.984375 L 77.875 -69.5 L 80.203125 -71.828125 C 81.546875 -73.171875 83.816406 -74.640625 87.015625 -76.234375 C 90.222656 -77.835938 92.914062 -78.847656 95.09375 -79.265625 C 97.363281 -79.785156 100.382812 -80.019531 104.15625 -79.96875 C 107.9375 -79.914062 110.8125 -79.628906 112.78125 -79.109375 C 119.082031 -77.554688 124.148438 -74.710938 127.984375 -70.578125 C 129.941406 -68.410156 131.382812 -66.265625 132.3125 -64.140625 C 133.25 -62.023438 133.976562 -59.207031 134.5 -55.6875 C 134.800781 -52.6875 134.953125 -43.09375 134.953125 -26.90625 C 134.953125 -10.726562 134.800781 -2.328125 134.5 -1.703125 C 134.289062 -1.285156 133.460938 -1.023438 132.015625 -0.921875 C 130.566406 -0.828125 127.875 -0.726562 123.9375 -0.625 C 117.113281 -0.519531 113.289062 -0.671875 112.46875 -1.078125 L 110.921875 -1.546875 L 110.609375 -25.125 C 110.609375 -25.4375 110.609375 -25.851562 110.609375 -26.375 C 110.609375 -38.257812 110.453125 -45.363281 110.140625 -47.6875 C 109.828125 -50.019531 108.894531 -52.222656 107.34375 -54.296875 C 106 -55.953125 104.0625 -57.0625 101.53125 -57.625 C 99 -58.195312 96.4375 -58.117188 93.84375 -57.390625 C 92.300781 -56.984375 90.703125 -55.976562 89.046875 -54.375 C 87.390625 -52.769531 86.195312 -50.984375 85.46875 -49.015625 C 84.957031 -47.566406 84.648438 -45.628906 84.546875 -43.203125 C 84.441406 -40.773438 84.390625 -34.335938 84.390625 -23.890625 C 84.390625 -9.203125 84.234375 -1.550781 83.921875 -0.9375 C 83.816406 -0.414062 83.269531 -0.128906 82.28125 -0.078125 C 81.300781 -0.0234375 79.054688 0 75.546875 0 C 69.753906 -0.101562 65.875 -0.257812 63.90625 -0.46875 L 60.5 -0.78125 L 60.1875 -24.359375 C 60.1875 -24.660156 60.1875 -25.070312 60.1875 -25.59375 C 59.976562 -38 59.71875 -45.414062 59.40625 -47.84375 C 59.101562 -50.28125 57.96875 -52.535156 56 -54.609375 C 53.726562 -56.878906 51.039062 -58.015625 47.9375 -58.015625 C 45.25 -58.015625 42.867188 -57.1875 40.796875 -55.53125 C 38.734375 -53.875 37.128906 -51.5 35.984375 -48.40625 C 35.265625 -46.851562 34.851562 -44.910156 34.75 -42.578125 C 34.644531 -40.253906 34.488281 -33.972656 34.28125 -23.734375 C 33.96875 -9.359375 33.609375 -1.960938 33.203125 -1.546875 C 32.785156 -1.140625 29.394531 -0.832031 23.03125 -0.625 C 16.675781 -0.414062 12.773438 -0.46875 11.328125 -0.78125 L 10.078125 -1.078125 L 10.078125 -39.09375 C 10.078125 -57.8125 10.128906 -68.847656 10.234375 -72.203125 C 10.335938 -75.566406 10.648438 -77.40625 11.171875 -77.71875 C 11.785156 -78.03125 15.609375 -78.132812 22.640625 -78.03125 L 32.890625 -77.875 L 33.359375 -74 L 33.96875 -70.265625 L 35.53125 -72.59375 C 37.800781 -74.5625 41.003906 -76.269531 45.140625 -77.71875 Z M 45.140625 -77.71875 "/></g></g></g><g fill="#000000" fill-opacity="1"><g transform="translate(314.420837, 133.170916)"><g><path d="M 13.34375 -114.953125 C 14.6875 -115.054688 17.992188 -115.15625 23.265625 -115.25 C 24.503906 -115.25 25.59375 -115.25 26.53125 -115.25 C 28.488281 -115.25 29.90625 -115.171875 30.78125 -115.015625 C 31.664062 -114.867188 32.675781 -114.273438 33.8125 -113.234375 C 33.914062 -113.140625 34.125 -104.609375 34.4375 -87.640625 L 34.75 -71.671875 L 38.46875 -73.84375 C 40.84375 -75.289062 43.09375 -76.320312 45.21875 -76.9375 C 47.34375 -77.5625 50.003906 -77.976562 53.203125 -78.1875 C 54.140625 -78.289062 55.070312 -78.34375 56 -78.34375 C 64.269531 -78.34375 71.738281 -75.597656 78.40625 -70.109375 C 85.082031 -64.628906 89.351562 -57.082031 91.21875 -47.46875 C 91.726562 -44.675781 91.984375 -41.082031 91.984375 -36.6875 C 91.984375 -32.289062 91.726562 -28.851562 91.21875 -26.375 C 90.695312 -23.988281 89.710938 -21.21875 88.265625 -18.0625 C 86.816406 -14.914062 85.421875 -12.460938 84.078125 -10.703125 C 81.898438 -8.015625 78.875 -5.738281 75 -3.875 C 71.125 -2.007812 67.425781 -0.664062 63.90625 0.15625 C 60.1875 0.976562 56.722656 1.390625 53.515625 1.390625 C 51.753906 1.390625 49.296875 1.15625 46.140625 0.6875 C 42.992188 0.226562 39.351562 -1.5 35.21875 -4.5 L 32.109375 -5.890625 L 32.109375 -3.40625 C 32.109375 -2.0625 31.953125 -1.390625 31.640625 -1.390625 C 31.640625 -1.390625 31.585938 -1.390625 31.484375 -1.390625 C 31.378906 -1.492188 31.226562 -1.546875 31.03125 -1.546875 C 30.613281 -1.546875 30.144531 -1.34375 29.625 -0.9375 C 29.113281 -0.625 28.179688 -0.414062 26.828125 -0.3125 C 25.484375 -0.207031 23.109375 -0.15625 19.703125 -0.15625 L 10.859375 -0.3125 L 10.859375 -114.640625 Z M 55.21875 -56.3125 C 53.769531 -56.832031 52.269531 -57.09375 50.71875 -57.09375 C 49.894531 -57.09375 48.679688 -56.960938 47.078125 -56.703125 C 45.472656 -56.441406 43.789062 -55.640625 42.03125 -54.296875 C 40.582031 -53.359375 39.34375 -52.0625 38.3125 -50.40625 C 37.28125 -48.757812 36.554688 -47.003906 36.140625 -45.140625 C 35.929688 -44.109375 35.828125 -42.816406 35.828125 -41.265625 C 35.828125 -39.921875 35.957031 -37.90625 36.21875 -35.21875 C 36.476562 -32.53125 37.070312 -29.941406 38 -27.453125 C 39.238281 -24.148438 41.148438 -21.566406 43.734375 -19.703125 C 46.328125 -17.835938 48.707031 -16.90625 50.875 -16.90625 C 51.394531 -16.90625 51.914062 -16.957031 52.4375 -17.0625 C 55.226562 -17.6875 57.785156 -19.160156 60.109375 -21.484375 C 62.429688 -23.804688 64.0625 -26.519531 65 -29.625 C 65.71875 -32.113281 66.078125 -34.753906 66.078125 -37.546875 C 66.078125 -38.160156 66.023438 -39.523438 65.921875 -41.640625 C 65.816406 -43.765625 65.25 -45.914062 64.21875 -48.09375 C 63.289062 -50.050781 62.023438 -51.753906 60.421875 -53.203125 C 58.816406 -54.648438 57.082031 -55.6875 55.21875 -56.3125 Z M 55.21875 -56.3125 "/></g></g></g><g fill="#000000" fill-opacity="1"><g transform="translate(399.574384, 133.170916)"><g><path d="M 34.59375 -78.5 C 37.90625 -79.113281 41.210938 -79.421875 44.515625 -79.421875 C 47.515625 -79.421875 50.515625 -79.160156 53.515625 -78.640625 C 62.515625 -77.203125 69.625 -73.6875 74.84375 -68.09375 C 80.070312 -62.507812 83.304688 -55.066406 84.546875 -45.765625 C 84.859375 -43.691406 85.015625 -41.675781 85.015625 -39.71875 C 85.015625 -33.300781 83.460938 -26.988281 80.359375 -20.78125 C 79.015625 -17.476562 76.765625 -14.25 73.609375 -11.09375 C 70.453125 -7.9375 67.21875 -5.476562 63.90625 -3.71875 C 59.5625 -1.34375 55.550781 0.046875 51.875 0.453125 C 48.207031 0.867188 45.34375 1.078125 43.28125 1.078125 C 40.695312 1.078125 38.210938 0.875 35.828125 0.46875 C 31.691406 -0.257812 28.019531 -1.550781 24.8125 -3.40625 C 21.613281 -5.269531 18.566406 -7.648438 15.671875 -10.546875 C 13.597656 -12.617188 12.117188 -14.273438 11.234375 -15.515625 C 10.359375 -16.753906 9.351562 -18.5625 8.21875 -20.9375 C 5.945312 -27.351562 4.8125 -34.078125 4.8125 -41.109375 C 4.8125 -46.066406 5.457031 -50.585938 6.75 -54.671875 C 8.039062 -58.765625 10.238281 -62.671875 13.34375 -66.390625 C 15.101562 -68.460938 17.144531 -70.398438 19.46875 -72.203125 C 21.789062 -74.015625 23.316406 -74.921875 24.046875 -74.921875 C 24.046875 -74.921875 24.097656 -74.921875 24.203125 -74.921875 C 24.410156 -74.816406 24.566406 -74.765625 24.671875 -74.765625 C 24.671875 -74.765625 24.691406 -74.789062 24.734375 -74.84375 C 24.785156 -74.894531 24.8125 -74.921875 24.8125 -74.921875 C 24.8125 -75.023438 24.765625 -75.128906 24.671875 -75.234375 C 24.566406 -75.335938 24.515625 -75.390625 24.515625 -75.390625 C 24.515625 -75.492188 24.613281 -75.546875 24.8125 -75.546875 C 24.914062 -75.546875 25.070312 -75.492188 25.28125 -75.390625 C 25.59375 -75.390625 25.800781 -75.390625 25.90625 -75.390625 C 26.007812 -75.390625 26.0625 -75.390625 26.0625 -75.390625 C 25.957031 -75.492188 25.90625 -75.546875 25.90625 -75.546875 C 25.90625 -75.859375 26.628906 -76.269531 28.078125 -76.78125 C 29.628906 -77.300781 31.800781 -77.875 34.59375 -78.5 Z M 50.421875 -58.796875 C 49.171875 -59.203125 47.769531 -59.484375 46.21875 -59.640625 C 44.675781 -59.796875 43.539062 -59.875 42.8125 -59.875 C 41.78125 -59.875 40.898438 -59.769531 40.171875 -59.5625 C 35.210938 -58.320312 31.539062 -55.328125 29.15625 -50.578125 C 28.539062 -49.128906 28.128906 -47.910156 27.921875 -46.921875 C 27.710938 -45.941406 27.609375 -44.265625 27.609375 -41.890625 C 27.609375 -39.398438 27.710938 -37.535156 27.921875 -36.296875 C 28.128906 -35.054688 28.539062 -33.816406 29.15625 -32.578125 C 30.507812 -29.578125 32.113281 -27.066406 33.96875 -25.046875 C 35.832031 -23.035156 37.617188 -21.691406 39.328125 -21.015625 C 41.035156 -20.347656 42.613281 -20.015625 44.0625 -20.015625 C 44.882812 -20.015625 46.097656 -20.191406 47.703125 -20.546875 C 49.304688 -20.910156 51.035156 -21.816406 52.890625 -23.265625 C 55.273438 -25.128906 57.085938 -27.40625 58.328125 -30.09375 C 59.566406 -32.78125 60.265625 -35.03125 60.421875 -36.84375 C 60.578125 -38.65625 60.65625 -39.972656 60.65625 -40.796875 C 60.65625 -42.765625 60.394531 -44.960938 59.875 -47.390625 C 59.363281 -49.816406 58.253906 -52.085938 56.546875 -54.203125 C 54.835938 -56.328125 52.796875 -57.859375 50.421875 -58.796875 Z M 50.421875 -58.796875 "/></g></g></g><g fill="#000000" fill-opacity="1"><g transform="translate(475.886673, 133.170916)"><g><path d="M 34.59375 -78.5 C 37.90625 -79.113281 41.210938 -79.421875 44.515625 -79.421875 C 47.515625 -79.421875 50.515625 -79.160156 53.515625 -78.640625 C 62.515625 -77.203125 69.625 -73.6875 74.84375 -68.09375 C 80.070312 -62.507812 83.304688 -55.066406 84.546875 -45.765625 C 84.859375 -43.691406 85.015625 -41.675781 85.015625 -39.71875 C 85.015625 -33.300781 83.460938 -26.988281 80.359375 -20.78125 C 79.015625 -17.476562 76.765625 -14.25 73.609375 -11.09375 C 70.453125 -7.9375 67.21875 -5.476562 63.90625 -3.71875 C 59.5625 -1.34375 55.550781 0.046875 51.875 0.453125 C 48.207031 0.867188 45.34375 1.078125 43.28125 1.078125 C 40.695312 1.078125 38.210938 0.875 35.828125 0.46875 C 31.691406 -0.257812 28.019531 -1.550781 24.8125 -3.40625 C 21.613281 -5.269531 18.566406 -7.648438 15.671875 -10.546875 C 13.597656 -12.617188 12.117188 -14.273438 11.234375 -15.515625 C 10.359375 -16.753906 9.351562 -18.5625 8.21875 -20.9375 C 5.945312 -27.351562 4.8125 -34.078125 4.8125 -41.109375 C 4.8125 -46.066406 5.457031 -50.585938 6.75 -54.671875 C 8.039062 -58.765625 10.238281 -62.671875 13.34375 -66.390625 C 15.101562 -68.460938 17.144531 -70.398438 19.46875 -72.203125 C 21.789062 -74.015625 23.316406 -74.921875 24.046875 -74.921875 C 24.046875 -74.921875 24.097656 -74.921875 24.203125 -74.921875 C 24.410156 -74.816406 24.566406 -74.765625 24.671875 -74.765625 C 24.671875 -74.765625 24.691406 -74.789062 24.734375 -74.84375 C 24.785156 -74.894531 24.8125 -74.921875 24.8125 -74.921875 C 24.8125 -75.023438 24.765625 -75.128906 24.671875 -75.234375 C 24.566406 -75.335938 24.515625 -75.390625 24.515625 -75.390625 C 24.515625 -75.492188 24.613281 -75.546875 24.8125 -75.546875 C 24.914062 -75.546875 25.070312 -75.492188 25.28125 -75.390625 C 25.59375 -75.390625 25.800781 -75.390625 25.90625 -75.390625 C 26.007812 -75.390625 26.0625 -75.390625 26.0625 -75.390625 C 25.957031 -75.492188 25.90625 -75.546875 25.90625 -75.546875 C 25.90625 -75.859375 26.628906 -76.269531 28.078125 -76.78125 C 29.628906 -77.300781 31.800781 -77.875 34.59375 -78.5 Z M 50.421875 -58.796875 C 49.171875 -59.203125 47.769531 -59.484375 46.21875 -59.640625 C 44.675781 -59.796875 43.539062 -59.875 42.8125 -59.875 C 41.78125 -59.875 40.898438 -59.769531 40.171875 -59.5625 C 35.210938 -58.320312 31.539062 -55.328125 29.15625 -50.578125 C 28.539062 -49.128906 28.128906 -47.910156 27.921875 -46.921875 C 27.710938 -45.941406 27.609375 -44.265625 27.609375 -41.890625 C 27.609375 -39.398438 27.710938 -37.535156 27.921875 -36.296875 C 28.128906 -35.054688 28.539062 -33.816406 29.15625 -32.578125 C 30.507812 -29.578125 32.113281 -27.066406 33.96875 -25.046875 C 35.832031 -23.035156 37.617188 -21.691406 39.328125 -21.015625 C 41.035156 -20.347656 42.613281 -20.015625 44.0625 -20.015625 C 44.882812 -20.015625 46.097656 -20.191406 47.703125 -20.546875 C 49.304688 -20.910156 51.035156 -21.816406 52.890625 -23.265625 C 55.273438 -25.128906 57.085938 -27.40625 58.328125 -30.09375 C 59.566406 -32.78125 60.265625 -35.03125 60.421875 -36.84375 C 60.578125 -38.65625 60.65625 -39.972656 60.65625 -40.796875 C 60.65625 -42.765625 60.394531 -44.960938 59.875 -47.390625 C 59.363281 -49.816406 58.253906 -52.085938 56.546875 -54.203125 C 54.835938 -56.328125 52.796875 -57.859375 50.421875 -58.796875 Z M 50.421875 -58.796875 "/></g></g></g></g></g><g clip-path="url(#f305c90e25)"><g transform="matrix(1, 0, 0, 1, 88, 0)"><g clip-path="url(#61db11d5fa)"><g fill="#ba1b1b" fill-opacity="1"><g transform="translate(15.943005, 118.023511)"><g><path d="M 67.46875 -52.53125 C 70.21875 -51.75 72.695312 -50.785156 74.90625 -49.640625 C 77.113281 -48.492188 78.394531 -47.820312 78.75 -47.625 C 82.375 -45.632812 84.988281 -43.84375 86.59375 -42.25 C 90.882812 -38.25 93.707031 -33.875 95.0625 -29.125 C 96.414062 -24.382812 96.210938 -19.550781 94.453125 -14.625 C 93.523438 -12.070312 88.941406 -3.144531 80.703125 12.15625 L 68.171875 35.359375 L 66.375 35.09375 C 65.40625 34.914062 63.863281 34.28125 61.75 33.1875 C 59.644531 32.09375 58.273438 31.367188 57.640625 31.015625 C 55.554688 29.878906 54.066406 28.941406 53.171875 28.203125 C 52.585938 27.765625 52.269531 27.265625 52.21875 26.703125 C 52.175781 26.148438 52.195312 25.140625 52.28125 23.671875 C 52.601562 21.585938 52.9375 20.234375 53.28125 19.609375 C 53.582031 19.054688 53.640625 18.734375 53.453125 18.640625 C 53.179688 18.484375 52.085938 18.648438 50.171875 19.140625 C 47.972656 19.703125 45.53125 20.015625 42.84375 20.078125 C 40.15625 20.140625 37.757812 19.953125 35.65625 19.515625 C 33.226562 19.003906 30.238281 17.78125 26.6875 15.84375 C 26.425781 15.695312 25.285156 15.039062 23.265625 13.875 C 21.242188 12.71875 19.546875 11.347656 18.171875 9.765625 C 11.210938 1.367188 10.460938 -7.816406 15.921875 -17.796875 C 15.972656 -17.890625 16.019531 -17.984375 16.0625 -18.078125 C 18 -21.609375 20.03125 -24.179688 22.15625 -25.796875 C 24.28125 -27.410156 27.238281 -28.769531 31.03125 -29.875 C 33.226562 -30.445312 35.007812 -30.796875 36.375 -30.921875 C 37.75 -31.046875 39.46875 -30.960938 41.53125 -30.671875 C 47.757812 -29.972656 55.359375 -27.164062 64.328125 -22.25 C 67.609375 -20.457031 69.609375 -19.421875 70.328125 -19.140625 C 71.054688 -18.859375 71.523438 -18.90625 71.734375 -19.28125 C 72.523438 -20.726562 72.726562 -22.554688 72.34375 -24.765625 C 71.96875 -26.984375 71.085938 -28.878906 69.703125 -30.453125 C 68.554688 -31.796875 66.941406 -33.035156 64.859375 -34.171875 C 64.304688 -34.472656 63.164062 -35.035156 61.4375 -35.859375 C 59.707031 -36.679688 57.28125 -37.359375 54.15625 -37.890625 C 50.4375 -38.640625 48.367188 -39.066406 47.953125 -39.171875 C 47.679688 -39.328125 47.609375 -39.835938 47.734375 -40.703125 C 47.867188 -41.578125 48.175781 -43 48.65625 -44.96875 C 49.78125 -48.96875 50.613281 -51.460938 51.15625 -52.453125 C 51.351562 -52.816406 51.503906 -53.085938 51.609375 -53.265625 C 51.910156 -53.816406 52.191406 -54.164062 52.453125 -54.3125 C 52.710938 -54.46875 53.46875 -54.613281 54.71875 -54.75 C 57.726562 -54.632812 61.976562 -53.894531 67.46875 -52.53125 Z M 59.140625 3.71875 L 63.15625 -3.625 L 57.921875 -6.3125 C 54.734375 -8.050781 52.25 -9.226562 50.46875 -9.84375 C 48.695312 -10.46875 46.890625 -10.816406 45.046875 -10.890625 C 42.316406 -10.847656 40.40625 -10.269531 39.3125 -9.15625 C 38.226562 -8.039062 37.535156 -7.210938 37.234375 -6.671875 C 36.492188 -5.316406 36.421875 -3.882812 37.015625 -2.375 C 37.671875 -0.125 39.222656 1.671875 41.671875 3.015625 C 42.316406 3.359375 43.765625 3.941406 46.015625 4.765625 C 48.273438 5.585938 51.390625 5.492188 55.359375 4.484375 Z M 59.140625 3.71875 "/></g></g></g></g></g></g></g></g></svg>